<svg width="293" height="612" viewBox="0 0 293 612" fill="none" xmlns="http://www.w3.org/2000/svg">
<path d="M291.329 250.69C290.567 246.09 288.732 241.784 287.148 237.409C287.182 237.2 287.182 236.987 287.148 236.778C286.871 235.36 286.602 233.942 286.342 232.524C285.91 229.36 285.477 226.204 285.104 223.091C283.95 213.326 282.706 203.573 281.373 193.832C280.455 184.857 279.59 175.882 278.845 166.89C277.91 155.711 277.243 144.505 276.473 133.308C276.363 132.734 276.384 132.144 276.533 131.579C280.187 122.829 274.343 117.598 268.742 113.283C256.621 104.006 244.059 95.3943 231.514 86.7913C228.916 85.0188 225.791 84.0677 222.267 82.6843C221.768 82.4896 221.36 82.1155 221.123 81.6356C220.886 81.1556 220.837 80.6045 220.986 80.0904C221.257 79.1246 221.62 78.1866 222.068 77.289C227.185 67.1902 227.644 56.391 227.263 45.4102C227.374 44.3568 227.785 43.3574 228.449 42.531C230.518 39.4097 232.778 36.3922 234.795 33.2622C234.92 32.9476 234.968 32.6077 234.935 32.2708C234.901 31.934 234.788 31.6099 234.604 31.3255C232.778 28.9564 231.141 26.3625 228.847 24.4517C224.285 20.5695 219.246 17.2407 214.657 13.3845C210.987 10.3064 207.143 8.24858 202.208 8.1967C200.597 8.1967 198.987 7.25426 197.377 6.65766C197.144 6.57211 196.898 6.52821 196.649 6.52798H190.468C190.22 6.52821 189.974 6.57211 189.741 6.65766C187.32 7.49774 184.952 8.48231 182.65 9.60604C181.572 7.8734 180.303 6.26672 178.867 4.81601C177.36 3.27698 175.672 1.55637 173.482 1.28833C171.638 1.07218 170.642 3.42397 171.456 4.82466C172.27 6.22536 174.157 7.10727 175.43 8.28317C176.64 9.36884 177.734 10.5772 178.694 11.8887C176.7 13.2115 174.9 14.803 173.343 16.6182C163.82 27.7459 159.941 40.9142 159.43 55.1805C159.352 57.4804 161.162 60.3683 162.893 62.0975C167.066 66.4206 171.785 70.1212 176.148 74.2023C177.014 75.015 177.265 76.4676 177.88 77.557C178.5 78.8625 179.33 80.0573 180.339 81.0934C182.685 83.0215 183.083 84.4741 180.278 86.4108C176.746 88.8404 173.612 91.8925 169.958 94.1233C167.361 95.6883 164.27 96.354 161.378 97.3743C154.011 99.9682 146.522 102.268 139.301 105.234C135.838 106.652 132.782 108.952 129.155 111.286C128.753 111.539 128.449 111.92 128.292 112.368C128.135 112.815 128.134 113.302 128.289 113.75C128.448 114.193 128.561 114.651 128.627 115.116C129.181 119.327 129.709 123.564 129.934 127.8C130.176 132.305 130.038 136.836 130.116 141.358C130.116 142.931 130.367 144.505 130.367 146.087C130.367 155.296 130.748 164.53 130.202 173.704C129.917 178.537 128.739 183.31 127.605 188.54C127.527 188.9 127.357 189.233 127.111 189.507C126.866 189.781 126.554 189.987 126.205 190.104C125.856 190.222 125.482 190.247 125.121 190.178C124.759 190.108 124.422 189.946 124.142 189.708C122.415 188.121 120.578 186.659 118.644 185.333C116.913 184.217 114.497 183.266 112.584 183.603C92.1866 187.062 71.8325 190.806 51.4784 194.532C48.8205 195.017 47.3401 195.094 46.9591 191.541C46.5696 187.831 42.968 187.978 40.1023 188.082C38.3708 188.082 36.6393 188.437 35.6783 189.587C32.2152 184.497 28.7522 179.413 25.2891 174.335L22.536 170.012L22.1724 169.415C20.3646 163.102 16.4323 157.606 11.0387 153.852C10.7282 153.667 10.3793 153.556 10.0191 153.529C9.65886 153.501 9.29705 153.556 8.96187 153.691C8.6267 153.826 8.3272 154.036 8.08675 154.305C7.84629 154.575 7.67136 154.896 7.57561 155.244C7.15226 157.215 7.16537 159.254 7.61401 161.22C8.06266 163.185 8.93599 165.029 10.1729 166.622C11.9422 168.878 14.2246 170.68 16.8306 171.879C21.4884 179.701 26.1664 187.514 30.8646 195.319C28.605 193.711 26.354 192.094 24.0857 190.486C21.8174 188.878 19.4539 187.261 17.1596 185.661C14.7008 183.932 12.4239 181.848 9.44565 181.286C8.09506 181.027 6.70984 182.419 7.54963 183.742C10.346 188.134 16.8912 190.996 21.2027 193.789L28.9946 198.804C20.3831 200.619 11.7284 202.418 3.03035 204.199C2.54502 204.289 2.10653 204.546 1.79045 204.925C1.47437 205.304 1.30051 205.781 1.29883 206.274C1.29983 206.828 1.51366 207.36 1.8962 207.761C4.79651 210.744 7.74876 213.675 10.5538 216.762C17.6877 224.691 24.5619 232.853 31.8516 240.634C42.8554 252.445 37.9812 250.543 53.3831 247.084C77.1483 241.75 100.792 235.913 125.466 237.496C126.332 237.556 127.198 237.548 128.22 237.496C128.541 237.492 128.859 237.561 129.151 237.697C129.442 237.834 129.698 238.034 129.901 238.284C130.103 238.533 130.246 238.825 130.319 239.138C130.393 239.451 130.394 239.776 130.323 240.09C129.111 245.692 128.012 250.742 126.921 255.878C126.344 258.477 125.899 261.103 125.588 263.754C124.202 274.752 123.562 285.932 120.809 296.61C114.454 321.252 110.904 346.214 108.939 371.487C108.255 380.228 108.212 380.202 116.004 383.808C120.739 386.004 124.428 390.5 130.254 390.31C133.432 390.206 134.436 392.1 134.721 394.91C135.371 401.239 135.102 407.931 137.172 413.776C139.769 421.151 137.812 428.267 138.176 435.461C138.617 444.029 137.189 452.753 137.942 461.244C139.12 474.689 141.76 487.987 143.197 501.414C145.622 525.485 151.849 549.021 161.647 571.146C166.027 580.917 170.789 590.531 171.932 601.408C172.114 603.138 173.967 605.472 175.637 606.233C184.044 610.055 192.901 611.836 202.13 609.934C203.55 609.648 205.593 608.204 205.801 607.011C206.407 603.553 207.091 599.714 206.173 596.471C204.589 590.868 201.68 585.646 199.593 580.164C198.807 578.085 198.159 575.956 197.654 573.792C197.605 573.589 197.526 573.393 197.42 573.213C197.074 572.616 196.71 572.028 196.32 571.484C195.824 570.753 195.531 569.902 195.473 569.021C195.416 568.139 195.594 567.258 195.992 566.469C196.157 566.107 196.215 565.704 196.156 565.31C195.533 560.944 194.987 556.56 194.035 552.272C193.316 549.021 191.178 546.115 190.07 542.916C189.031 539.951 188.563 536.795 187.758 533.743C185.308 524.448 182.07 515.283 180.52 505.85C178.399 492.958 177.334 479.868 176.252 466.829C175.87 460.838 175.942 454.826 176.469 448.845C176.832 443.605 178.07 438.469 178.546 433.204C179.057 427.506 179.152 421.782 179.412 416.067C179.412 415.375 179.161 414.666 179.152 413.966C179.152 411.087 178.962 408.19 179.152 405.32C179.352 402.786 180.33 400.279 180.356 397.763C180.356 394.858 181.17 393.396 184.304 393.742C187.438 394.088 188.304 392.713 188.044 389.635C187.923 387.008 188.001 384.375 188.278 381.759C188.317 381.22 188.558 380.716 188.953 380.348C189.347 379.979 189.867 379.773 190.407 379.77C196.857 379.77 202.978 379.675 209.09 379.874C210.603 380.086 211.979 380.862 212.943 382.044C222.172 393.284 227.462 406.435 231.038 420.226C232.57 426.123 232.38 432.521 232.527 438.703C232.671 442.538 232.307 446.376 231.445 450.116C227.852 464.616 224.025 479.055 220.112 493.468C217.783 502.045 219.938 512.084 211.904 518.845C211.683 519.133 211.525 519.464 211.44 519.817C211.355 520.17 211.345 520.537 211.411 520.894C211.943 523.922 211.488 527.041 210.112 529.791L209.8 530.422C209.572 530.858 209.508 531.361 209.619 531.84C208.666 534.434 207.723 537.028 206.77 539.674C205.645 542.274 204.668 544.935 203.844 547.646L201.558 550.871C201.372 551.127 201.247 551.423 201.195 551.735L197.732 572.296C197.672 572.655 197.705 573.022 197.827 573.365C197.95 573.707 198.159 574.012 198.433 574.25L199.143 574.864C199.475 577.295 200.734 579.504 202.658 581.029C204.749 582.653 207.213 583.728 209.826 584.159L210.225 584.496C210.576 584.806 211.021 584.989 211.489 585.015L266.222 588.439L283.009 589.2C283.301 589.214 283.592 589.168 283.865 589.065C284.138 588.962 284.387 588.803 284.596 588.599C284.805 588.396 284.969 588.151 285.079 587.881C285.189 587.611 285.242 587.321 285.234 587.03C285.13 582.516 284.663 572.876 282.637 572.876C280.611 572.876 254.534 555.583 240.76 546.453C240.76 546.383 240.76 546.314 240.76 546.254C240.76 544.628 242.37 541.931 243.756 541.542C247.149 540.616 247.981 538.878 247.963 535.671C247.963 530.483 247.548 525.14 248.829 520.254C250.561 513.666 253.885 507.51 256.214 501.051C260.41 489.436 264.479 477.778 268.421 466.077C272.196 454.837 275.763 443.467 279.33 432.123C279.923 429.933 280.354 427.702 280.62 425.448C281.122 422.344 281.113 419.041 281.892 416.058C282.037 415.555 281.991 415.016 281.763 414.545C276.694 404.51 273.349 393.696 271.867 382.554C271.858 382.455 271.841 382.356 271.815 382.26C271.105 379.77 270.412 377.271 269.78 374.755C269.001 371.694 269.78 368.21 268.915 365.244C265.227 353.062 263.486 340.222 256.941 328.93C256.189 327.515 255.913 325.896 256.153 324.313C256.639 321.065 256.755 317.773 256.5 314.499C267.914 300.695 277.866 285.746 286.195 269.893C288.445 267.039 290.095 263.76 291.044 260.253C291.063 260.202 291.086 260.153 291.113 260.106C291.373 259.528 291.486 258.896 291.442 258.264C291.811 255.75 291.773 253.192 291.329 250.69ZM250.829 255.713C250.543 250.655 250.327 245.606 250.214 240.548C250.14 233.569 250.429 226.59 251.08 219.641L252.431 225.521L256.863 244.776C257.123 245.926 257.365 247.11 257.599 248.312C255.481 250.883 253.236 253.35 250.864 255.713H250.829Z" fill="#888888" stroke="white" stroke-width="3" stroke-miterlimit="10"/>
</svg>
