<svg width="242" height="242" viewBox="0 0 242 242" fill="none" xmlns="http://www.w3.org/2000/svg">
<path d="M37 40H205V202H37V40Z" fill="#C4C4C4"/>
<path fill-rule="evenodd" clip-rule="evenodd" d="M242 0H0V242H242V0ZM220 25H22V217H220V25ZM37 202V40H205V202H37Z" fill="white"/>
<path d="M97.4788 108.999H102.526C102.685 109.055 102.848 109.101 103.013 109.134C104.26 109.296 105.511 109.431 106.755 109.611C108.268 109.838 109.13 110.991 108.917 112.44C108.768 113.398 108.099 113.907 107.316 114.34C105.608 115.289 104.693 116.761 104.793 118.706C104.897 120.746 106.012 122.15 107.91 122.909C109.589 123.581 109.988 124.481 109.751 126.274C109.589 127.475 109.537 128.756 109.764 129.937C110.754 135.075 115.978 138.381 120.879 137.257C122.488 136.888 123.456 137.477 124.064 139.025C124.1 139.116 124.143 139.207 124.18 139.297C124.472 140.029 124.944 140.674 125.554 141.172C126.164 141.671 126.89 142.006 127.665 142.147C128.439 142.288 129.237 142.229 129.983 141.977C130.729 141.724 131.399 141.287 131.929 140.704C132.325 140.275 132.621 139.745 132.928 139.242C133.497 138.314 134.323 137.933 135.374 138.09C136.373 138.239 137.018 138.844 137.276 139.823C137.392 140.276 137.483 140.735 137.548 141.199C137.708 142.29 137.856 143.384 138.005 144.478V149.525C137.956 149.764 137.892 150.002 137.856 150.242C137.683 151.538 137.592 152.849 137.337 154.128C135.486 163.408 130.894 171.068 123.433 176.881C114.402 183.916 104.146 186.361 92.8978 184.331C85.4116 182.981 78.9319 179.531 73.4928 174.207C67.4421 168.283 63.7596 161.128 62.4453 152.74C62.2776 151.672 62.1484 150.597 62 149.525V144.478C62.049 144.239 62.1113 144.001 62.1484 143.761C62.3281 142.443 62.4349 141.11 62.6888 139.806C64.1362 132.362 67.5059 125.903 72.8084 120.486C78.7295 114.435 85.8822 110.752 94.2664 109.435C95.3323 109.269 96.4071 109.147 97.4788 108.999ZM101.073 113.911C92.6959 113.129 78.6572 117.265 70.9662 130.834C63.7057 143.638 66.0674 160.316 76.7052 170.677C87.6902 181.374 104.211 183.328 117.199 175.417C123.757 171.422 128.408 165.793 131.132 158.617C132.695 154.534 133.396 150.172 133.191 145.805C132.98 145.881 132.886 145.904 132.805 145.946C128.351 148.269 123.08 146.605 120.565 142.633C120.432 142.422 120.068 142.273 119.796 142.248C118.913 142.167 118.015 142.23 117.139 142.1C109.68 141.021 104.549 134.918 104.778 127.403C104.794 126.863 104.621 126.586 104.184 126.275C100.939 123.948 99.5215 120.801 100.176 116.828C100.342 115.836 100.768 114.879 101.073 113.911Z" fill="black"/>
<path d="M90.5246 123.25C91.4641 123.255 92.3812 123.537 93.1599 124.063C93.9386 124.589 94.544 125.333 94.8995 126.203C95.2549 127.073 95.3445 128.028 95.1569 128.949C94.9693 129.87 94.5129 130.714 93.8455 131.375C93.178 132.036 92.3295 132.485 91.4072 132.664C90.4848 132.843 89.5302 132.744 88.6639 132.381C87.7976 132.017 87.0585 131.405 86.5402 130.621C86.0219 129.837 85.7476 128.918 85.752 127.978C85.7532 127.354 85.8777 126.736 86.1185 126.16C86.3593 125.584 86.7116 125.061 87.1552 124.622C87.5987 124.182 88.1247 123.835 88.7029 123.6C89.2812 123.364 89.9003 123.245 90.5246 123.25Z" fill="black"/>
<path d="M81.0331 142.251C81.9726 142.258 82.889 142.543 83.6666 143.07C84.4442 143.598 85.0479 144.344 85.4014 145.214C85.755 146.084 85.8425 147.04 85.6528 147.96C85.4632 148.881 85.005 149.724 84.3361 150.384C83.6672 151.043 82.8177 151.49 81.895 151.667C80.9723 151.844 80.0179 151.743 79.1524 151.378C78.2869 151.012 77.5492 150.398 77.0326 149.614C76.516 148.829 76.2437 147.909 76.2501 146.969C76.2528 146.345 76.3789 145.727 76.621 145.152C76.8631 144.576 77.2166 144.055 77.661 143.616C78.1055 143.178 78.6322 142.831 79.2109 142.597C79.7896 142.363 80.4088 142.246 81.0331 142.251Z" fill="black"/>
<path d="M109.503 166.016C109.5 166.956 109.219 167.873 108.695 168.653C108.17 169.433 107.427 170.039 106.558 170.397C105.689 170.754 104.733 170.845 103.812 170.659C102.891 170.473 102.046 170.018 101.384 169.352C100.721 168.686 100.271 167.838 100.091 166.916C99.9099 165.994 100.007 165.04 100.369 164.173C100.731 163.306 101.342 162.565 102.124 162.046C102.907 161.526 103.826 161.25 104.766 161.252C105.39 161.252 106.008 161.376 106.585 161.616C107.161 161.855 107.684 162.207 108.125 162.649C108.565 163.092 108.913 163.617 109.15 164.195C109.386 164.773 109.506 165.392 109.503 166.016Z" fill="black"/>
<path d="M102.377 151.752C101.908 151.752 101.449 151.613 101.059 151.352C100.669 151.092 100.364 150.722 100.184 150.289C100.004 149.855 99.9561 149.379 100.047 148.918C100.137 148.458 100.362 148.035 100.693 147.702C101.024 147.369 101.446 147.142 101.906 147.049C102.365 146.956 102.843 147.001 103.277 147.178C103.711 147.356 104.083 147.659 104.345 148.047C104.608 148.436 104.75 148.894 104.752 149.363C104.757 149.677 104.7 149.989 104.582 150.28C104.465 150.572 104.29 150.836 104.069 151.059C103.848 151.282 103.584 151.458 103.293 151.577C103.003 151.696 102.691 151.755 102.377 151.752Z" fill="black"/>
<path d="M123.754 158.856C123.758 159.325 123.623 159.785 123.366 160.177C123.11 160.57 122.742 160.877 122.311 161.061C121.88 161.245 121.403 161.298 120.942 161.211C120.482 161.125 120.056 160.904 119.721 160.577C119.385 160.25 119.154 159.83 119.056 159.371C118.958 158.913 118.999 158.435 119.172 157.999C119.345 157.564 119.643 157.189 120.029 156.922C120.415 156.656 120.871 156.51 121.34 156.502C121.655 156.493 121.968 156.548 122.261 156.662C122.553 156.777 122.82 156.949 123.045 157.168C123.271 157.388 123.449 157.65 123.571 157.94C123.693 158.23 123.755 158.542 123.754 158.856Z" fill="black"/>
<path d="M90.502 163.66C90.4956 164.129 90.3504 164.586 90.0849 164.972C89.8194 165.359 89.4453 165.658 89.0099 165.833C88.5745 166.007 88.0973 166.048 87.6383 165.952C87.1794 165.855 86.7593 165.625 86.431 165.29C86.1027 164.955 85.8809 164.531 85.7935 164.07C85.7062 163.609 85.7572 163.133 85.9401 162.701C86.1231 162.269 86.4298 161.901 86.8216 161.643C87.2134 161.386 87.6727 161.25 88.1417 161.252C88.4561 161.251 88.7675 161.313 89.0575 161.434C89.3476 161.555 89.6104 161.733 89.8305 161.958C90.0505 162.182 90.2233 162.449 90.3387 162.741C90.454 163.033 90.5096 163.346 90.502 163.66Z" fill="black"/>
<circle cx="158" cy="105" r="21.5" stroke="black" stroke-width="3"/>
<circle cx="148.464" cy="101.073" r="4.4878" fill="black"/>
<circle cx="156.316" cy="114.537" r="2.2439" fill="black"/>
<circle cx="157.439" cy="94.3416" r="2.2439" fill="black"/>
<circle cx="169.78" cy="105.561" r="3.36585" fill="black"/>
<circle r="13.5" transform="matrix(-1 0 0 1 100 73)" stroke="black" stroke-width="3"/>
<circle r="2.92683" transform="matrix(-1 0 0 1 106.22 70.439)" fill="black"/>
<circle r="1.46341" transform="matrix(-1 0 0 1 101.097 79.2195)" fill="black"/>
<circle r="1.46341" transform="matrix(-1 0 0 1 100.367 66.0489)" fill="black"/>
<circle r="2.19512" transform="matrix(-1 0 0 1 92.3166 73.3658)" fill="black"/>
<circle cx="163" cy="158" r="3" fill="black"/>
<circle cx="178" cy="160" r="5" fill="black"/>
<circle cx="166.5" cy="167.5" r="1.5" fill="black"/>
<circle cx="62" cy="89" r="3" fill="black"/>
<circle cx="67" cy="97" r="2" fill="black"/>
</svg>
