<svg width="206" height="76" viewBox="0 0 206 76" fill="none" xmlns="http://www.w3.org/2000/svg">
<path d="M26.88 30.592C27.488 31.52 28 32.144 28.416 32.464C28.832 32.784 29.392 32.96 30.096 32.992V34C27.92 33.872 26.544 33.808 25.968 33.808C24.912 33.808 22.656 33.872 19.2 34V32.992C20.448 32.992 21.328 32.944 21.84 32.848C22.352 32.72 22.608 32.512 22.608 32.224C22.608 31.968 22.496 31.68 22.272 31.36L14.064 18.784L8.88 26.512C7.664 28.336 7.056 29.744 7.056 30.736C7.056 31.568 7.424 32.16 8.16 32.512C8.896 32.832 9.952 33.008 11.328 33.04V34C9.504 33.904 7.344 33.856 4.848 33.856C3.088 33.856 1.728 33.904 0.768 34V33.04C1.728 32.912 2.64 32.48 3.504 31.744C4.4 31.008 5.296 29.968 6.192 28.624L13.44 17.824L4.032 3.424C3.424 2.496 2.912 1.872 2.496 1.552C2.08 1.232 1.52 1.056 0.816 1.024V0.0159998C2.992 0.143998 4.368 0.207997 4.944 0.207997C7.088 0.207997 9.344 0.143998 11.712 0.0159998V1.024C10.56 1.024 9.728 1.12 9.216 1.312C8.736 1.472 8.496 1.728 8.496 2.08C8.496 2.272 8.64 2.624 8.928 3.136L16.416 14.56L21.12 7.504C22.496 5.488 23.184 3.952 23.184 2.896C23.184 2.224 22.88 1.744 22.272 1.456C21.664 1.168 20.736 1.008 19.488 0.975999V0.0159998C21.312 0.111999 23.152 0.159998 25.008 0.159998C26.768 0.159998 28.128 0.111999 29.088 0.0159998V0.975999C28.128 1.104 27.2 1.536 26.304 2.272C25.44 3.008 24.56 4.048 23.664 5.392L16.944 15.424L26.88 30.592ZM57.0139 27.856C57.0139 29.68 57.1259 31.728 57.3499 34C55.1739 33.904 51.5099 33.856 46.3579 33.856C40.2139 33.856 35.5739 33.904 32.4379 34V33.04C33.5899 32.976 34.4219 32.848 34.9339 32.656C35.4779 32.464 35.8459 32.096 36.0379 31.552C36.2299 31.008 36.3259 30.128 36.3259 28.912V5.104C36.3259 3.888 36.2299 3.008 36.0379 2.464C35.8459 1.92 35.4779 1.552 34.9339 1.36C34.4219 1.168 33.5899 1.04 32.4379 0.975999V0.0159998C35.5739 0.111999 40.2139 0.159998 46.3579 0.159998C51.0619 0.159998 54.4059 0.111999 56.3899 0.0159998C56.1659 2.128 56.0539 4.016 56.0539 5.68C56.0539 6.928 56.1019 7.92 56.1979 8.656H55.0939C54.8699 6.576 54.5819 5.04 54.2299 4.048C53.8779 3.024 53.2859 2.288 52.4539 1.84C51.6219 1.36 50.3579 1.12 48.6619 1.12H44.6779C43.5259 1.12 42.6779 1.216 42.1339 1.408C41.6219 1.568 41.2699 1.92 41.0779 2.464C40.8859 3.008 40.7899 3.888 40.7899 5.104V16.432H43.9579C45.0779 16.432 45.9419 16.176 46.5499 15.664C47.1579 15.12 47.5579 14.496 47.7499 13.792C47.9739 13.056 48.1499 12.144 48.2779 11.056L48.4219 10.096H49.5259C49.4299 11.44 49.3819 12.944 49.3819 14.608V16.912C49.3819 18.544 49.4779 20.816 49.6699 23.728H48.5659C48.5339 23.504 48.4379 22.736 48.2779 21.424C48.1179 20.08 47.6699 19.072 46.9339 18.4C46.2299 17.728 45.2379 17.392 43.9579 17.392H40.7899V28.912C40.7899 30.128 40.8859 31.008 41.0779 31.552C41.2699 32.096 41.6219 32.464 42.1339 32.656C42.6779 32.816 43.5259 32.896 44.6779 32.896H48.1819C50.1659 32.896 51.6699 32.64 52.6939 32.128C53.7499 31.584 54.5179 30.736 54.9979 29.584C55.4779 28.4 55.8299 26.672 56.0539 24.4H57.1579C57.0619 25.264 57.0139 26.416 57.0139 27.856ZM91.8319 0.975999C90.7119 1.04 89.8799 1.216 89.3359 1.504C88.7919 1.76 88.4239 2.208 88.2319 2.848C88.0399 3.456 87.9439 4.368 87.9439 5.584V34.24H86.8399L66.6799 3.088V28.432C66.6799 29.68 66.7759 30.608 66.9679 31.216C67.1919 31.824 67.6079 32.272 68.2159 32.56C68.8239 32.816 69.7679 32.976 71.0479 33.04V34C69.8959 33.904 68.2639 33.856 66.1519 33.856C64.2319 33.856 62.7439 33.904 61.6879 34V33.04C62.8079 32.976 63.6399 32.816 64.1839 32.56C64.7279 32.272 65.0959 31.824 65.2879 31.216C65.4799 30.576 65.5759 29.648 65.5759 28.432V5.104C65.5759 3.888 65.4799 3.008 65.2879 2.464C65.0959 1.92 64.7279 1.552 64.1839 1.36C63.6719 1.168 62.8399 1.04 61.6879 0.975999V0.0159998C62.7439 0.111999 64.2319 0.159998 66.1519 0.159998C67.5919 0.159998 68.8399 0.111999 69.8959 0.0159998L86.8399 26.128V5.584C86.8399 4.336 86.7279 3.408 86.5039 2.8C86.3119 2.192 85.9119 1.76 85.3039 1.504C84.6959 1.216 83.7519 1.04 82.4719 0.975999V0.0159998C83.6239 0.111999 85.2559 0.159998 87.3679 0.159998C89.2879 0.159998 90.7759 0.111999 91.8319 0.0159998V0.975999ZM107.819 0.975999C106.667 1.04 105.819 1.168 105.275 1.36C104.763 1.552 104.411 1.92 104.219 2.464C104.027 3.008 103.931 3.888 103.931 5.104V28.912C103.931 30.128 104.027 31.008 104.219 31.552C104.411 32.096 104.763 32.464 105.275 32.656C105.819 32.848 106.667 32.976 107.819 33.04V34C106.347 33.904 104.315 33.856 101.723 33.856C98.9705 33.856 96.9225 33.904 95.5785 34V33.04C96.7305 32.976 97.5625 32.848 98.0745 32.656C98.6185 32.464 98.9865 32.096 99.1785 31.552C99.3705 31.008 99.4665 30.128 99.4665 28.912V5.104C99.4665 3.888 99.3705 3.008 99.1785 2.464C98.9865 1.92 98.6185 1.552 98.0745 1.36C97.5625 1.168 96.7305 1.04 95.5785 0.975999V0.0159998C96.9225 0.111999 98.9705 0.159998 101.723 0.159998C104.283 0.159998 106.315 0.111999 107.819 0.0159998V0.975999ZM141.268 0.975999C140.148 1.04 139.316 1.216 138.772 1.504C138.228 1.76 137.86 2.208 137.668 2.848C137.476 3.456 137.38 4.368 137.38 5.584V20.032C137.38 22.336 137.22 24.32 136.9 25.984C136.612 27.616 136.116 29.024 135.412 30.208C134.612 31.584 133.428 32.672 131.86 33.472C130.324 34.272 128.58 34.672 126.628 34.672C123.108 34.672 120.42 33.808 118.564 32.08C117.156 30.768 116.212 29.28 115.732 27.616C115.252 25.952 115.012 23.472 115.012 20.176V5.104C115.012 3.888 114.916 3.008 114.724 2.464C114.532 1.92 114.164 1.552 113.62 1.36C113.108 1.168 112.276 1.04 111.124 0.975999V0.0159998C112.468 0.111999 114.516 0.159998 117.268 0.159998C119.86 0.159998 121.892 0.111999 123.364 0.0159998V0.975999C122.212 1.04 121.364 1.168 120.82 1.36C120.308 1.552 119.956 1.92 119.764 2.464C119.572 3.008 119.476 3.888 119.476 5.104V20.992C119.476 23.552 119.652 25.68 120.004 27.376C120.356 29.072 121.076 30.432 122.164 31.456C123.284 32.48 124.916 32.992 127.06 32.992C130.452 32.992 132.836 31.904 134.212 29.728C135.588 27.552 136.276 24.496 136.276 20.56V5.584C136.276 3.856 135.956 2.672 135.316 2.032C134.708 1.392 133.572 1.04 131.908 0.975999V0.0159998C133.06 0.111999 134.692 0.159998 136.804 0.159998C138.724 0.159998 140.212 0.111999 141.268 0.0159998V0.975999ZM182.339 0.975999C181.187 1.04 180.339 1.168 179.795 1.36C179.283 1.552 178.931 1.92 178.739 2.464C178.547 3.008 178.451 3.888 178.451 5.104V28.912C178.451 30.128 178.547 31.008 178.739 31.552C178.931 32.096 179.283 32.464 179.795 32.656C180.339 32.848 181.187 32.976 182.339 33.04V34C180.867 33.904 178.835 33.856 176.243 33.856C173.491 33.856 171.443 33.904 170.099 34V33.04C171.251 32.976 172.083 32.848 172.595 32.656C173.139 32.464 173.507 32.096 173.699 31.552C173.891 31.008 173.987 30.128 173.987 28.912V3.184L162.419 34.24H161.651L149.555 3.088V28.432C149.555 29.68 149.651 30.608 149.843 31.216C150.067 31.824 150.483 32.272 151.091 32.56C151.699 32.816 152.643 32.976 153.923 33.04V34C152.771 33.904 151.139 33.856 149.027 33.856C147.107 33.856 145.619 33.904 144.563 34V33.04C145.683 32.976 146.515 32.816 147.059 32.56C147.603 32.272 147.971 31.824 148.163 31.216C148.355 30.576 148.451 29.648 148.451 28.432V5.104C148.451 3.888 148.355 3.008 148.163 2.464C147.971 1.92 147.603 1.552 147.059 1.36C146.547 1.168 145.715 1.04 144.563 0.975999V0.0159998C145.619 0.111999 147.107 0.159998 149.027 0.159998C150.691 0.159998 152.051 0.111999 153.107 0.0159998L163.667 27.808L173.987 0.159998H176.243C178.835 0.159998 180.867 0.111999 182.339 0.0159998V0.975999ZM18.048 40.344C19.936 40.344 21.488 40.616 22.704 41.16C23.92 41.672 25.248 42.44 26.688 43.464C27.104 43.784 27.424 43.944 27.648 43.944C28.256 43.944 28.656 42.968 28.848 41.016H29.952C29.824 43.096 29.76 46.776 29.76 52.056H28.656C28.368 50.36 28.064 48.968 27.744 47.88C27.424 46.76 26.928 45.784 26.256 44.952C25.328 43.8 24.112 42.888 22.608 42.216C21.136 41.544 19.584 41.208 17.952 41.208C15.84 41.208 13.984 41.896 12.384 43.272C10.784 44.648 9.552 46.616 8.688 49.176C7.824 51.704 7.392 54.664 7.392 58.056C7.392 63.816 8.304 68.04 10.128 70.728C11.984 73.384 14.88 74.712 18.816 74.712C20.736 74.712 22.4 74.216 23.808 73.224C24.384 72.84 24.752 72.472 24.912 72.12C25.104 71.736 25.2 71.224 25.2 70.584V65.976C25.2 64.632 25.072 63.656 24.816 63.048C24.56 62.44 24.112 62.024 23.472 61.8C22.832 61.576 21.792 61.432 20.352 61.368V60.408C22.016 60.504 24.272 60.552 27.12 60.552C29.296 60.552 30.96 60.504 32.112 60.408V61.368C31.376 61.432 30.832 61.56 30.48 61.752C30.16 61.944 29.936 62.312 29.808 62.856C29.712 63.4 29.664 64.28 29.664 65.496V75H28.704C28.672 74.36 28.544 73.752 28.32 73.176C28.096 72.568 27.792 72.264 27.408 72.264C27.216 72.264 27.024 72.312 26.832 72.408C26.64 72.504 26.304 72.728 25.824 73.08C24.704 73.944 23.536 74.584 22.32 75C21.136 75.448 19.808 75.672 18.336 75.672C15.04 75.672 12.208 75 9.84 73.656C7.504 72.28 5.712 70.312 4.464 67.752C3.216 65.192 2.592 62.136 2.592 58.584C2.592 54.936 3.248 51.736 4.56 48.984C5.904 46.2 7.744 44.072 10.08 42.6C12.416 41.096 15.072 40.344 18.048 40.344ZM60.966 70.968C61.734 72.952 62.838 73.976 64.278 74.04V75C62.998 74.904 61.286 74.856 59.142 74.856C56.39 74.856 54.342 74.904 52.998 75V74.04C54.214 73.976 55.078 73.832 55.59 73.608C56.134 73.352 56.406 72.904 56.406 72.264C56.406 71.72 56.214 70.968 55.83 70.008L52.902 62.136H41.286L39.318 67.224C38.678 68.952 38.358 70.264 38.358 71.16C38.358 72.152 38.694 72.872 39.366 73.32C40.07 73.768 41.126 74.008 42.534 74.04V75C40.71 74.904 38.87 74.856 37.014 74.856C35.574 74.856 34.374 74.904 33.414 75V74.04C35.014 73.656 36.278 72.264 37.206 69.864L48.486 40.776H49.254L60.966 70.968ZM52.518 61.176L47.142 46.824L41.67 61.176H52.518ZM77.3029 41.976C76.1509 42.04 75.3029 42.168 74.7589 42.36C74.2469 42.552 73.8949 42.92 73.7029 43.464C73.5109 44.008 73.4149 44.888 73.4149 46.104V69.912C73.4149 71.128 73.5109 72.008 73.7029 72.552C73.8949 73.096 74.2469 73.464 74.7589 73.656C75.3029 73.816 76.1509 73.896 77.3029 73.896H80.8069C82.7909 73.896 84.2949 73.624 85.3189 73.08C86.3749 72.504 87.1429 71.592 87.6229 70.344C88.1029 69.096 88.4549 67.288 88.6789 64.92H89.7829C89.6869 65.912 89.6389 67.224 89.6389 68.856C89.6389 70.68 89.7509 72.728 89.9749 75C87.7989 74.904 84.1349 74.856 78.9829 74.856C72.8389 74.856 68.1989 74.904 65.0629 75V74.04C66.2149 73.976 67.0469 73.848 67.5589 73.656C68.1029 73.464 68.4709 73.096 68.6629 72.552C68.8549 72.008 68.9509 71.128 68.9509 69.912V46.104C68.9509 44.888 68.8549 44.008 68.6629 43.464C68.4709 42.92 68.1029 42.552 67.5589 42.36C67.0469 42.168 66.2149 42.04 65.0629 41.976V41.016C66.4069 41.112 68.4549 41.16 71.2069 41.16C73.7669 41.16 75.7989 41.112 77.3029 41.016V41.976ZM105.522 41.976C104.37 42.04 103.522 42.168 102.978 42.36C102.466 42.552 102.114 42.92 101.922 43.464C101.73 44.008 101.634 44.888 101.634 46.104V69.912C101.634 71.128 101.73 72.008 101.922 72.552C102.114 73.096 102.466 73.464 102.978 73.656C103.522 73.816 104.37 73.896 105.522 73.896H109.026C111.01 73.896 112.514 73.624 113.538 73.08C114.594 72.504 115.362 71.592 115.842 70.344C116.322 69.096 116.674 67.288 116.898 64.92H118.002C117.906 65.912 117.858 67.224 117.858 68.856C117.858 70.68 117.97 72.728 118.194 75C116.018 74.904 112.354 74.856 107.202 74.856C101.058 74.856 96.4176 74.904 93.2816 75V74.04C94.4336 73.976 95.2656 73.848 95.7776 73.656C96.3216 73.464 96.6896 73.096 96.8816 72.552C97.0736 72.008 97.1696 71.128 97.1696 69.912V46.104C97.1696 44.888 97.0736 44.008 96.8816 43.464C96.6896 42.92 96.3216 42.552 95.7776 42.36C95.2656 42.168 94.4336 42.04 93.2816 41.976V41.016C94.6256 41.112 96.6736 41.16 99.4256 41.16C101.986 41.16 104.018 41.112 105.522 41.016V41.976ZM146.076 68.856C146.076 70.68 146.188 72.728 146.412 75C144.236 74.904 140.572 74.856 135.42 74.856C129.276 74.856 124.636 74.904 121.5 75V74.04C122.652 73.976 123.484 73.848 123.996 73.656C124.54 73.464 124.908 73.096 125.1 72.552C125.292 72.008 125.388 71.128 125.388 69.912V46.104C125.388 44.888 125.292 44.008 125.1 43.464C124.908 42.92 124.54 42.552 123.996 42.36C123.484 42.168 122.652 42.04 121.5 41.976V41.016C124.636 41.112 129.276 41.16 135.42 41.16C140.124 41.16 143.468 41.112 145.452 41.016C145.228 43.128 145.116 45.016 145.116 46.68C145.116 47.928 145.164 48.92 145.26 49.656H144.156C143.932 47.576 143.644 46.04 143.292 45.048C142.94 44.024 142.348 43.288 141.516 42.84C140.684 42.36 139.42 42.12 137.724 42.12H133.74C132.588 42.12 131.74 42.216 131.196 42.408C130.684 42.568 130.332 42.92 130.14 43.464C129.948 44.008 129.852 44.888 129.852 46.104V57.432H133.02C134.14 57.432 135.004 57.176 135.612 56.664C136.22 56.12 136.62 55.496 136.812 54.792C137.036 54.056 137.212 53.144 137.34 52.056L137.484 51.096H138.588C138.492 52.44 138.444 53.944 138.444 55.608V57.912C138.444 59.544 138.54 61.816 138.732 64.728H137.628C137.596 64.504 137.5 63.736 137.34 62.424C137.18 61.08 136.732 60.072 135.996 59.4C135.292 58.728 134.3 58.392 133.02 58.392H129.852V69.912C129.852 71.128 129.948 72.008 130.14 72.552C130.332 73.096 130.684 73.464 131.196 73.656C131.74 73.816 132.588 73.896 133.74 73.896H137.244C139.228 73.896 140.732 73.64 141.756 73.128C142.812 72.584 143.58 71.736 144.06 70.584C144.54 69.4 144.892 67.672 145.116 65.4H146.22C146.124 66.264 146.076 67.416 146.076 68.856ZM180.414 72.6C179.678 73.688 178.942 74.472 178.206 74.952C177.47 75.432 176.494 75.672 175.278 75.672C173.966 75.672 172.878 75.288 172.014 74.52C171.182 73.752 170.558 72.408 170.142 70.488L169.086 65.688C168.702 64.024 168.334 62.744 167.982 61.848C167.662 60.952 167.166 60.232 166.494 59.688C165.822 59.144 164.878 58.872 163.662 58.872H159.102V69.912C159.102 71.128 159.198 72.008 159.39 72.552C159.582 73.096 159.934 73.464 160.446 73.656C160.99 73.848 161.838 73.976 162.99 74.04V75C161.518 74.904 159.486 74.856 156.894 74.856C154.142 74.856 152.094 74.904 150.75 75V74.04C151.902 73.976 152.734 73.848 153.246 73.656C153.79 73.464 154.158 73.096 154.35 72.552C154.542 72.008 154.638 71.128 154.638 69.912V46.104C154.638 44.888 154.542 44.008 154.35 43.464C154.158 42.92 153.79 42.552 153.246 42.36C152.734 42.168 151.902 42.04 150.75 41.976V41.016C152.094 41.112 154.046 41.16 156.606 41.16L161.79 41.112C162.398 41.08 163.086 41.064 163.854 41.064C167.566 41.064 170.414 41.848 172.398 43.416C174.414 44.952 175.422 46.952 175.422 49.416C175.422 50.664 175.118 51.928 174.51 53.208C173.934 54.456 172.942 55.592 171.534 56.616C170.158 57.608 168.35 58.28 166.11 58.632L166.686 58.728C168.798 59.08 170.334 59.72 171.294 60.648C172.254 61.576 172.958 63.048 173.406 65.064L174.606 69.96C174.926 71.432 175.262 72.456 175.614 73.032C175.966 73.608 176.446 73.896 177.054 73.896C177.598 73.896 178.046 73.752 178.398 73.464C178.782 73.176 179.214 72.712 179.694 72.072L180.414 72.6ZM162.654 41.976C161.662 41.976 160.91 42.088 160.398 42.312C159.918 42.536 159.582 42.936 159.39 43.512C159.198 44.088 159.102 44.952 159.102 46.104V57.912H162.318C165.486 57.912 167.662 57.208 168.846 55.8C170.03 54.392 170.622 52.44 170.622 49.944C170.622 47.32 169.998 45.336 168.75 43.992C167.502 42.648 165.47 41.976 162.654 41.976ZM202.28 41.16C203.72 41.16 204.92 41.112 205.88 41.016V41.976C205.24 42.136 204.616 42.552 204.008 43.224C203.4 43.864 202.744 44.872 202.04 46.248L194.504 61.176V69.912C194.504 71.128 194.6 72.008 194.792 72.552C194.984 73.096 195.336 73.464 195.848 73.656C196.392 73.848 197.24 73.976 198.392 74.04V75C196.92 74.904 194.888 74.856 192.296 74.856C189.544 74.856 187.496 74.904 186.152 75V74.04C187.304 73.976 188.136 73.848 188.648 73.656C189.192 73.464 189.56 73.096 189.752 72.552C189.944 72.008 190.04 71.128 190.04 69.912V62.712L180.296 44.712C179.72 43.656 179.208 42.952 178.76 42.6C178.344 42.216 177.928 42.024 177.512 42.024V41.016C178.76 41.112 180.168 41.16 181.736 41.16C184.84 41.16 187.08 41.112 188.456 41.016V42.024C186.216 42.024 185.096 42.632 185.096 43.848C185.096 44.328 185.256 44.888 185.576 45.528L193.544 60.84L199.688 48.648C200.552 46.952 200.984 45.576 200.984 44.52C200.984 43.624 200.632 42.984 199.928 42.6C199.224 42.216 198.168 42.008 196.76 41.976V41.016C198.584 41.112 200.424 41.16 202.28 41.16Z" fill="white"/>
</svg>
