<svg width="233" height="608" viewBox="0 0 233 608" fill="none" xmlns="http://www.w3.org/2000/svg">
<path d="M229.16 594.05L224.6 590.92L224.53 590.85L214 575.28C209.33 566.42 209.58 565.17 206 558.28C203.75 553.86 200.29 551.6 200.08 546.36C199.88 541.55 198.82 536.03 196.17 532.19C190.23 523.59 188.23 514.04 186.55 504.19C182.84 482.37 179.05 460.58 169.37 440.33C165.01 431.21 159.86 422.87 151.71 416.51C148.78 414.23 145.62 411.21 144.45 407.87C140.19 395.71 137.45 383.4 141.68 370.31C144.68 361.04 147.74 351.37 148.2 341.75C149.63 311.82 149.94 281.83 150.5 251.85C150.76 237.92 150.5 224.25 155.28 210.54C160.06 196.83 162.06 182.08 165.41 167.05C165.419 167.005 165.439 166.962 165.468 166.927C165.497 166.891 165.534 166.863 165.577 166.845C165.619 166.827 165.666 166.82 165.712 166.824C165.757 166.829 165.802 166.845 165.84 166.87C169.92 169.51 174.34 171.4 177.26 174.64C183.18 181.23 189.99 179.91 197.04 178.32C201.04 177.42 203.39 174.82 205.04 170.88C208.44 162.67 206.36 156.04 201.38 149.07C195.23 140.47 190.2 131.07 184.57 122.07C181.32 116.87 178.06 111.64 174.39 106.74C172.568 104.225 170.202 102.154 167.468 100.68C164.734 99.2066 161.703 98.3692 158.6 98.23C152.95 97.8901 147.29 97.69 141.6 97.5201C137.35 97.4 134.6 95.98 133.3 91.35C132.136 87.8929 130.185 84.7536 127.6 82.18C122.36 76.7 121.6 73.58 125.72 66.99C129.72 60.66 134.84 54.79 131.89 46.42C131.851 46.2474 131.851 46.0684 131.889 45.8956C131.927 45.7229 132.002 45.5605 132.11 45.42C136.61 38.73 136.29 33.05 132.11 25.42C127.93 17.79 121.65 12.67 116.68 6.16005C115.728 5.21984 114.509 4.59498 113.19 4.37005C105.77 2.53005 98.35 -1.24995 90.8699 4.45005C89.78 5.28005 87.95 5.09005 86.59 5.67005C84.9399 6.38005 82.71 7.02005 81.9799 8.37005C79.1899 13.54 74.1199 14.59 69.3499 16.5C67.4499 17.26 64.7899 19.13 64.6299 20.71C64.1399 25.71 61.3999 28.54 57.3899 30.71C53.6199 32.71 53.8399 35.01 56.0399 38.4C57.2899 40.31 58.0399 43.7701 57.1099 45.62C55.0299 49.8801 56.4599 53.15 58.0499 56.91C60.4199 62.52 62.2299 68.36 64.3899 74.05C66.0199 78.37 66.9499 83.32 69.7399 86.73C75.1099 93.3101 77.5899 100.43 79.1299 108.73C80.8199 117.81 77.95 123.9 71.2299 129.09C63.2299 135.29 55.2299 141.6 47.1199 147.62C38.0399 154.33 32.9399 162.86 33.5599 174.41C33.8999 180.73 34.56 187.07 34.24 193.41C33.98 199.46 33.5099 205.73 31.6899 211.41C28.9999 219.87 26.2199 228.11 26.8999 237.18C27.3599 243.37 25.2499 248.72 21.7099 253.95C18.9899 257.95 17.3099 262.83 15.9199 267.54C11.4299 282.82 7.54993 298.28 2.86993 313.54C1.29221 318.24 1.07042 323.29 2.22995 328.11C5.51995 341.96 14.0199 352.88 21.4299 364.53C27.1499 373.53 34.6599 377.33 44.9499 375.34C49.6499 374.43 52.1099 375.34 53.5099 380.4C54.9099 385.46 57.9799 390.06 59.7099 395.08C62.5699 403.34 64.8199 411.84 66.8799 420.33C68.2499 426 69.3699 431.73 70.59 437.44C71.53 441.89 73.3599 446.33 73.4299 450.79C73.6502 474.89 80.2359 498.504 92.5199 519.24C95.0199 523.5 97.4499 528.15 98.3599 532.92C100.088 542.417 101.263 552.007 101.88 561.64C102.07 564.39 101.25 568.55 98.8199 570.03C90.8199 574.92 83.8199 577.85 74.59 584.67C71.21 587.17 66.09 591.28 63.5899 593.04C61.4299 594.57 58.4699 594.67 56.2099 595.54C54.3561 596.221 52.5982 597.138 50.9799 598.27C50.6827 598.481 50.4578 598.779 50.3361 599.122C50.2144 599.466 50.2017 599.839 50.2999 600.19C50.3466 600.251 50.39 600.314 50.4299 600.38C50.9499 601.13 51.4299 601.9 51.9299 602.68L58.1399 605.59L93.5999 600.89L125.26 600.45C127.73 600.45 132.58 600.2 132.58 597.72C132.58 597.72 130.92 587.42 130.91 587.39C123.04 565.13 124.4 522.93 121.57 491.73C120.19 476.51 118.57 461.4 110.87 447.51C106.19 439.06 105.53 429.44 106.87 418.83C106.877 418.778 106.898 418.728 106.93 418.687C106.963 418.646 107.006 418.614 107.056 418.596C107.105 418.577 107.159 418.572 107.21 418.582C107.262 418.592 107.31 418.615 107.35 418.65C113.4 423.97 120.09 427.89 122.54 435.5C128.46 453.91 135.45 471.61 146.77 487.69C157.19 502.48 165.95 519.15 167.92 537.39C168.01 538.21 171.92 552.98 172.26 553.72C176.47 563.77 175.8 565.39 175.26 571.72C176.26 578.43 173.26 591.2 174.92 597.72C176.58 601.63 181.26 600.72 184.92 601.06L226.64 601.89C227.48 601.892 228.295 601.608 228.951 601.085C229.607 600.561 230.066 599.829 230.25 599.01L230.56 597.69C230.717 597.013 230.667 596.304 230.418 595.656C230.168 595.007 229.73 594.448 229.16 594.05ZM45.9399 324.98C45.9399 326.48 43.5999 329.26 42.4799 329.2C38.8297 328.94 35.241 328.121 31.8399 326.77C28.6399 325.52 25.8399 323.17 22.7299 321.77C20.1199 320.61 20.0199 319.08 21.3099 317.12C29.3699 304.85 37.4999 292.62 46.0999 279.62C46.0999 295.09 46.1999 310.03 45.9399 324.98ZM52.3399 248.55C50.6399 238.26 57.1699 230.74 59.8699 222.09C62.4599 232.2 59.9699 240.89 52.3399 248.55Z" fill="#888888" stroke="white" stroke-width="3" stroke-miterlimit="10"/>
</svg>
