<svg width="32" height="32" viewBox="0 0 32 32" fill="none" xmlns="http://www.w3.org/2000/svg">
<path fill-rule="evenodd" clip-rule="evenodd" d="M14.9553 6.44739C15.3314 6.80924 15.9262 6.80923 16.3023 6.44739L19.2811 3.58129C21.6023 1.34794 25.3657 1.34794 27.6869 3.58129L28.2765 4.14855C30.5977 6.3819 30.5977 10.0029 28.2765 12.2362L21.7883 18.4789C19.9572 20.2406 17.2288 20.6126 15.0188 19.595C14.6054 19.4046 14.1076 19.4478 13.7796 19.7634C13.3309 20.1952 13.3877 20.933 13.9452 21.2105C16.9287 22.6953 20.6873 22.2341 23.1892 19.8268L29.6774 13.5842C32.7724 10.6064 32.7724 5.7784 29.6774 2.80061L29.0879 2.23335C25.9929 -0.744446 20.9751 -0.744451 17.8802 2.23334L14.9553 5.04747C14.5582 5.4296 14.5582 6.06526 14.9553 6.44739Z" fill="black"/>
<path fill-rule="evenodd" clip-rule="evenodd" d="M17.0447 25.5526C16.6686 25.1908 16.0738 25.1908 15.6977 25.5526L12.7189 28.4187C10.3977 30.6521 6.63429 30.6521 4.3131 28.4187L3.72352 27.8514C1.40233 25.6181 1.40234 21.9971 3.72353 19.7638L10.2117 13.5211C12.0428 11.7594 14.7712 11.3874 16.9812 12.405C17.3946 12.5954 17.8924 12.5522 18.2204 12.2366C18.6691 11.8048 18.6123 11.067 18.0548 10.7895C15.0713 9.3047 11.3127 9.76592 8.81078 12.1732L2.32256 18.4158C-0.772359 21.3936 -0.772361 26.2216 2.32256 29.1994L2.91213 29.7667C6.00706 32.7444 11.0249 32.7445 14.1198 29.7667L17.0447 26.9525C17.4418 26.5704 17.4418 25.9347 17.0447 25.5526Z" fill="black"/>
</svg>
