<?xml version="1.0" encoding="utf-8"?>
<svg version="1.1" id="Layer_1" xmlns="http://www.w3.org/2000/svg" xmlns:xlink="http://www.w3.org/1999/xlink" x="0px" y="0px"
	 viewBox="0 0 56.3 14.9" style="enable-background:new 0 0 56.3 14.9;" xml:space="preserve">
<path d="M0,0v14.5h2.8V2.4h0l2.6,12.1h3l2.7-12.1h0v12.1H14V0H9.7L7.1,11.4h0L4.4,0H0z M16.8,0v14.5h11V12h-8V8h7.1V5.5
	h-7.1v-3h7.7V0H16.8z M30.2,0v14.5H33V4.2h0.1L39,14.5h3V0h-2.8v10.1h0L33.4,0H30.2z M44.8,0v9.6c0,4.3,3.2,5.3,5.7,5.3
	c3.7,0,5.9-1.7,5.9-5.5V0h-3v9.6c0,1.8-0.8,2.8-2.9,2.8c-1.4,0-2.6-0.9-2.6-2.9V0H44.8z"/>
</svg>
