<svg id="Layer_1" data-name="Layer 1" xmlns="http://www.w3.org/2000/svg" viewBox="0 0 101 101"><defs><style>.cls-1{fill:#fff;}</style></defs><title>preloader-g</title><path class="cls-1" d="M93.64,49.74H50.05v12H78.61A30.81,30.81,0,0,1,67.94,76.17a30.07,30.07,0,0,1-17.55,5.64,31.14,31.14,0,0,1,0-62.28A30.69,30.69,0,0,1,78.27,37.79H91.8A44.56,44.56,0,0,0,76.34,15.57,42.24,42.24,0,0,0,50.39,6.73c-23.85,0-43.25,19.7-43.25,43.85s19.4,43.86,43.25,43.86,43.25-19.7,43.25-43.86Z"/><path class="cls-1" d="M93.64,49.74H50.05v12H78.61A30.81,30.81,0,0,1,67.94,76.17a30.07,30.07,0,0,1-17.55,5.64,31.14,31.14,0,0,1,0-62.28A30.69,30.69,0,0,1,78.27,37.79H91.8A44.56,44.56,0,0,0,76.34,15.57,42.24,42.24,0,0,0,50.39,6.73c-23.85,0-43.25,19.7-43.25,43.85s19.4,43.86,43.25,43.86,43.25-19.7,43.25-43.86Z"/></svg>