<svg id="Layer_1" data-name="Layer 1" xmlns="http://www.w3.org/2000/svg" viewBox="0 0 13 101"><title>preloader-center</title><path d="M3.14,90.39V92l2.52,2L3.14,96v1.6L6.5,94.86l3.36,2.77V96L7.34,94l2.52-2.1V90.39L6.5,93.17Z"/><path d="M8.68,87.7H7.09V83.49H6V87.7H4.32V83.24H3.14V89H9.86V83.24H8.68Z"/><path d="M3.14,76.59H8.26L3.14,80.13v1.51H9.86V80.38H4.74l5-3.54.08-.08V75.33H3.14Z"/><path d="M9.86,72.38H3.14v1.27H9.86Z"/><path d="M7.09,64.56H3.14v1.26h4c1.17,0,1.76.59,1.76,1.85s-.59,1.85-1.76,1.85H3.14v1.26h4C9,70.78,10,69.69,10,67.67S9,64.56,7.09,64.56Z"/><path d="M9.86,55.05H3.14V56.9l5.29,2.19-5.29,2.1V63H9.86V61.78h-5l5-2.11V58.41l-5-2.1h5Z"/><path d="M9.86,41.83l-.92-.42v-3.7l.92-.42V35.94l-6.72,3v1.26l6.72,3Zm-2-3.7v2.78L4.65,39.47Z"/><path d="M9.86,30.3H8.68V34H3.14v1.27H9.86Z"/><path d="M9.86,17.68H8.68v4.46H7.09V17.93H6v4.21H4.32V17.68H3.14V23.4H9.86Z"/><path d="M9.86,15.23H7.68V12.71l2.18-1.18V10.18L7.51,11.53a2,2,0,0,0-2-1.26c-1.43,0-2.27.92-2.27,2.52v3.62H9.94V15.23ZM5.41,11.62c.84,0,1.17.42,1.17,1.43v2.27H4.32V13.05C4.32,12,4.65,11.62,5.41,11.62Z"/><path d="M6.42,43H6.33v3.7H7.51V44.44a2.34,2.34,0,0,1,1,.76,2.55,2.55,0,0,1,.42,1.34,2.36,2.36,0,1,1-4.71,0,2.3,2.3,0,0,1,1.43-2.1h.08V43.18H5.66a4,4,0,0,0-1.85,1.26,3.26,3.26,0,0,0-.75,2.1,3.57,3.57,0,0,0,3.61,3.54,3.57,3.57,0,0,0,3.61-3.54A3.74,3.74,0,0,0,6.42,43Z"/><path d="M3.14,4.8l2.77,2-2.77,2v1.51L7,7.41H9.86V6.23H7l-3.86-3Z"/><path d="M9.86,30.3H8.68V34H3.14v1.27H9.86Z"/><path d="M9.86,24.41H8.68v3.7H3.14v1.26H9.86Z"/></svg>