<svg width="51" height="51" viewBox="0 0 51 51" fill="none" xmlns="http://www.w3.org/2000/svg">
<g clip-path="url(#clip0_283_920)">
<path d="M16.0441 46.2188C35.2846 46.2188 45.8113 30.2743 45.8113 16.4515C45.8113 16.0033 45.8014 15.5451 45.7815 15.0969C47.8292 13.6159 49.5964 11.7816 51 9.6801C49.0929 10.5286 47.068 11.0828 44.9946 11.3237C47.1777 10.015 48.8124 7.95922 49.5955 5.53735C47.5417 6.75453 45.2956 7.61314 42.9536 8.07639C41.3755 6.39966 39.2891 5.28946 37.0168 4.91745C34.7446 4.54544 32.413 4.93232 30.3827 6.0183C28.3524 7.10427 26.7363 8.82884 25.7844 10.9254C24.8325 13.0219 24.5978 15.3736 25.1165 17.617C20.9578 17.4083 16.8894 16.328 13.175 14.4461C9.46056 12.5641 6.1831 9.92264 3.55506 6.69281C2.21935 8.99573 1.81062 11.7208 2.41194 14.3143C3.01326 16.9077 4.57951 19.1749 6.79236 20.6551C5.13108 20.6023 3.5062 20.155 2.05195 19.3502V19.4797C2.05046 21.8964 2.88596 24.2391 4.41641 26.1095C5.94686 27.9799 8.07781 29.2625 10.447 29.7394C8.90812 30.1605 7.29296 30.2218 5.72654 29.9187C6.39509 31.9971 7.69584 33.815 9.44726 35.1185C11.1987 36.4221 13.3134 37.1464 15.4962 37.1902C11.7904 40.1012 7.21262 41.6801 2.5002 41.6726C1.66449 41.6714 0.829598 41.6201 0 41.5192C4.78732 44.5906 10.3563 46.2218 16.0441 46.2188Z" fill="black"/>
</g>
<defs>
<clipPath id="clip0_283_920">
<rect width="51" height="51" fill="white"/>
</clipPath>
</defs>
</svg>
